<?xml version="1.0" encoding="utf-8"?>
<!-- Generator: Adobe Illustrator 24.1.1, SVG Export Plug-In . SVG Version: 6.00 Build 0)  -->
<svg version="1.1" id="Capa_1" xmlns="http://www.w3.org/2000/svg" xmlns:xlink="http://www.w3.org/1999/xlink" x="0px" y="0px"
	 viewBox="0 0 512 512" style="enable-background:new 0 0 512 512;" xml:space="preserve">
<style type="text/css">
	.st0{fill:#FFFFFF;}
</style>
<g>
	<g>
		<path class="st0" d="M489.9,94.6C472,90.3,460.3,82.1,458,79.1c-1.4-3.4-3-6.7-4.9-10c-1.9-3.2-3.9-6.3-6.2-9.3
			c-11.4-15-37.5-29.4-67.7-25.6c-26,3.2-62.9,21.1-92.8,87.1C222.8,151.6,192.8,189.2,161,229c-33.1,41.5-67.3,84.4-145.2,130.4
			L0,368.8h67.7c0.5,0,0.9,0,1.4,0c0,0,0,0,0,0c39.9-0.3,85.7-15.2,129.2-42c39.9-24.6,67.7-52.5,77.5-69.3l26.6,15.6
			c-14.4,24.6-48.9,56-88,80.1c-14.9,9.2-33.3,19.1-54.2,27.4c-12.2,4.9-25.2,9.2-38.8,12.5c-17.1,4.2-35.2,6.7-53.8,6.7h-1.6
			c28.3,5.9,62.6,10.8,97.8,11.9c5.4,0.2,10.7,0.3,16,0.3c11.6,0,22.9-0.4,33.7-1.3c-3.1,10.6-7.8,23.3-13.7,37.1h-41.5v30.8h193.3
			v-30.8h-41.4c-5.2-12.1-14.7-32.7-25.7-50c25.3-7.7,47.8-18.7,67.2-32.7c54.5-39.5,82.9-102.2,84.3-186.4
			c4.5-5.1,7.7-10.9,10.6-16.3c4.2-7.8,7.1-12.6,10.8-13.9l1.1-0.4c10.2-3.5,25.6-8.7,40.3-29.4L512,99.9L489.9,94.6z M233.2,447.6
			L233.2,447.6c5.1-12.9,10.3-27.7,13.2-41.1c0,0,0,0,0,0c2-0.3,4.1-0.7,6.1-1.1c8.3,11.1,17.1,28,23.8,42.2H233.2z M393.4,111.3
			c-8.9,0-16.1-7.2-16.1-16.1c0-8.9,7.2-16.1,16.1-16.1c8.9,0,16.1,7.2,16.1,16.1C409.5,104.1,402.3,111.3,393.4,111.3z"/>
	</g>
</g>
</svg>
