<svg xmlns="http://www.w3.org/2000/svg" xmlns:xlink="http://www.w3.org/1999/xlink" viewBox="0 0 100 125" version="1.1" x="0px" y="0px"><title>Chamois</title><desc>Created with Sketch.</desc><g stroke="none" stroke-width="1" fill="none" fill-rule="evenodd"><g fill-rule="nonzero" fill="#000000"><path d="M42.2308023,49.6738863 C43.5344563,49.1943121 45.2846417,48.6591881 46.4722525,48.3848836 L52.3767516,47.0211108 C53.5378081,46.7529395 55.4092916,46.0474651 56.4545563,45.4841362 L62.8255867,42.0505703 C63.7834276,41.5343571 65.1887208,40.305381 65.8272663,39.4266102 L69.5254511,34.3371427 C69.9576148,33.7423961 70.5140413,33.3113761 71.1265792,33.0510466 C71.1486852,33.0132266 71.1731837,32.9705892 71.1997808,32.9233422 C71.3635959,32.632341 71.5289952,32.3011254 71.6834599,31.9394156 C72.2773864,30.5486176 72.526625,29.1570939 72.2722808,27.9433676 C72.0896761,27.0719809 72.6474247,26.2174222 73.5180471,26.0346573 C74.3886695,25.8518923 75.2424788,26.4101304 75.4250835,27.281517 C75.8369646,29.2470069 75.4760513,31.2620221 74.6456362,33.2066053 C74.6254182,33.2539497 74.6051851,33.3006599 74.5849565,33.3467251 C74.7688966,33.4636488 74.9464339,33.5981713 75.1155397,33.7505002 L79.6979401,37.8782805 C81.375025,39.3889818 81.4411418,41.9415534 79.8433175,43.5407802 L79.1015633,44.2831855 C78.7337419,44.6513298 78.2109276,44.8190205 77.6978272,44.7334287 L73.9501263,44.1537489 C73.488593,45.0776257 72.939593,46.6233149 72.6485516,47.783034 C72.6316104,48.3017595 72.9889882,48.8977101 73.455391,49.084435 C73.6798902,49.1743135 73.8639482,49.2920198 74.0109797,49.4290091 C75.3413984,50.2995731 76.5003012,51.7702911 76.9089391,53.2017792 L77.2136042,54.2690431 C77.6579181,55.8255066 77.6981485,58.205703 77.3067705,59.7725888 L76.8435366,61.6271511 C76.6277851,62.4909145 75.7532794,63.0160785 74.8902735,62.8001376 C74.0272676,62.5841967 73.5025642,61.7089235 73.7183157,60.8451601 L74.1815497,58.9905978 C74.4357961,57.9727196 74.4052871,56.1676857 74.1161472,55.1548076 L73.8114821,54.0875437 C73.5804413,53.2781913 72.6320707,52.2274214 71.8528376,51.9154546 C71.8528376,51.9154546 71.3864988,51.6119698 71.1723257,51.4396538 C70.35094,50.7787966 69.7678897,49.8288544 69.5367965,48.7994554 C69.4536858,48.429241 69.4160979,48.0487496 69.4293181,47.6677323 C69.4343073,47.5239365 69.4465332,47.3800658 69.4662798,47.2366443 C69.4776743,47.153885 69.491573,47.0712753 69.5080305,46.9889158 C69.5080305,46.9889158 69.5931324,46.7308116 69.6301266,46.5961269 C69.9919501,45.2788353 70.5550749,43.7402109 71.068815,42.7118287 L71.2593039,42.3305165 C71.7738347,41.3005517 72.9786375,40.677501 74.1145551,40.8669868 L77.4098047,41.4166771 L77.565441,41.2609042 C77.858581,40.9675069 77.8477514,40.549409 77.5429345,40.2748329 L72.9605341,36.1470526 C72.6825635,35.8966595 72.3503554,35.9312762 72.1307167,36.2335445 L68.4325319,41.3230119 C67.5099159,42.5927225 65.7362484,44.1438543 64.3528537,44.8894129 L57.9818234,48.3229789 C56.6834483,49.0227176 54.5419186,49.8299886 53.1011148,50.1627736 L47.1966158,51.5265463 C46.0758447,51.7854128 44.3105659,52.3314736 43.1296509,52.7794485 C42.2964288,53.1632563 41.2409551,54.1984031 40.8864408,54.9967604 L39.5799459,57.9389541 C38.8071404,59.6792928 36.7953106,61.1504901 34.8990544,61.3613701 L32.3622994,61.6434792 C31.4408084,61.745957 30.0585832,62.4897023 29.4693172,63.1974421 L22.8481179,71.1498554 C22.2786315,71.8338389 21.2629797,71.9262519 20.5795961,71.3562657 C19.8962125,70.7862795 19.8038805,69.7697362 20.3733668,69.0857527 L26.9945662,61.1333394 C28.1165682,59.7857552 30.2581754,58.6334028 32.0065549,58.4389679 L34.5433098,58.1568589 C35.3025097,58.0724293 36.3286508,57.3220398 36.6361898,56.6294697 L37.9426847,53.6872759 C38.1599912,53.1979072 38.475279,52.6998262 38.8547714,52.2254666 C38.5689696,52.0100779 38.2645557,51.7456918 37.9601944,51.4290939 C36.6059391,50.0203919 35.9236021,48.2036749 36.36822,46.0819655 C36.5508247,45.2105789 37.404634,44.6523408 38.2752564,44.8351057 C39.1458789,45.0178707 39.7036274,45.8724294 39.5210227,46.7438161 C39.317633,47.7143885 39.6113682,48.4964562 40.281529,49.1935603 C40.62162,49.5473244 40.9614958,49.7829158 41.1369001,49.874065 C41.2227981,49.918702 41.3029929,49.9700024 41.377181,50.0270055 C41.4564211,49.9809305 42.1671321,49.6973086 42.2308023,49.6738863 Z M48.2141127,61.0528642 L33.5068503,68.0255771 L31.2858291,73.9534989 C30.9734816,74.7871567 30.0450534,75.20954 29.2121266,74.8969183 C28.3791999,74.5842966 27.9571871,73.6550535 28.2695346,72.8213957 L30.7196165,66.2821092 C30.8665274,65.8900028 31.1601179,65.5705005 31.5382442,65.3912309 L47.0554293,58.0345336 C47.2015009,57.9652811 47.3571551,57.9184285 47.5171611,57.8955505 L64.3457364,55.4893581 L68.1502922,53.204621 C68.9130889,52.7465412 69.9024791,52.9941059 70.3601571,53.7575721 C70.8178351,54.5210383 70.5704875,55.5112969 69.8076908,55.9693767 L65.7242211,58.4216091 C65.5401364,58.5321568 65.3358296,58.6047577 65.1233094,58.6351444 L48.2141127,61.0528642 Z"/></g></g><text x="0" y="115" fill="#000000" font-size="5px" font-weight="bold" font-family="'Helvetica Neue', Helvetica, Arial-Unicode, Arial, Sans-serif">Created by Andrea Severgnini</text><text x="0" y="120" fill="#000000" font-size="5px" font-weight="bold" font-family="'Helvetica Neue', Helvetica, Arial-Unicode, Arial, Sans-serif">from the Noun Project</text></svg>