<?xml version="1.0" encoding="utf-8"?>
<!-- Generator: Adobe Illustrator 24.1.1, SVG Export Plug-In . SVG Version: 6.00 Build 0)  -->
<svg version="1.1" id="Ebene_1" xmlns="http://www.w3.org/2000/svg" xmlns:xlink="http://www.w3.org/1999/xlink" x="0px" y="0px"
	 viewBox="0 0 512 512" style="enable-background:new 0 0 512 512;" xml:space="preserve">
<style type="text/css">
	.st0{fill:#FFFFFF;}
</style>
<g id="Solid">
	<path class="st0" d="M240,392c0,0.9-0.1,1.7-0.4,2.5L211.1,480h15.7l37.2-81.7V336h-24V392z"/>
	<path class="st0" d="M128.5,389.2l12.4-33l-40.1,36.4l40.3,87.4h15.8l-28.5-85.5C127.8,392.8,127.9,390.9,128.5,389.2z"/>
	<path class="st0" d="M388.3,136H350c-2.9,0-5.5-1.5-6.9-4c-4.3-7.4-12.2-12-20.7-12h-22.5l3.6,8.9c3.6,9.1,12.5,15.1,22.3,15.1h5
		c4.4,0,8,3.6,8,8c0,2-0.7,3.9-2,5.3l-42.7,48c-1.5,1.7-3.7,2.7-6,2.7H104c-22.1,0-40,17.9-40,40v39c0,15.7,10.7,29.4,25.9,33.2
		c4.3,1.1,6.9,5.4,5.8,9.7c-0.3,1-0.7,2-1.4,2.9L48,394.7V480h16v-72c0-2.3,1-4.4,2.6-5.9l85.4-77.6V280h16v40h96v-40h16v200h16.8
		L312,327.2c0.1-1,0.4-1.9,0.8-2.8l64-128c1.6-3.2,5.2-5,8.7-4.3l26.7,5.3c6.6,1.3,13-3,14.4-9.6c0.7-3.7-0.3-7.5-2.7-10.3
		L388.3,136z M384,168h-16v-16h16V168z"/>
	<path class="st0" d="M400,124.3v0.7l15.7,18.3c7.7-1.7,14-7.2,16.9-14.5l3.6-8.9h-22.5C408.8,120,404,121.5,400,124.3z"/>
	<path class="st0" d="M48,248c0-11.4,3.5-22.6,10.1-32H56c-13.2,0-24,10.8-24,24v31.2c5.8-1.2,11.3-3.7,16-7.4V248z"/>
	<path class="st0" d="M304,72h1.1c3.5,2.8,7.3,5.2,11.3,7.2c15.8,8,26.3,23.7,27.5,41.4l16-1c-1-14.4-6.6-28.1-16.1-39
		C354,72.3,360,59.8,360,46.7V32h-16v14.7c0,9.2-4.7,17.9-12.5,22.8c-2.5-1.7-5.2-3.3-7.9-4.7c-16.9-8.4-27.6-25.7-27.6-44.6V16h-16
		v4.2c0,11.9,3.2,23.5,9.2,33.7c-5.9-1.7-11.1-4.9-15.3-9.4c-6.5-7-9.9-16.9-9.9-28.5h-16c0,15.7,4.9,29.3,14.1,39.4
		C272.1,66.2,286.6,72,304,72z"/>
	<path class="st0" d="M480,16c0,11.6-3.4,21.5-9.9,28.5c-4.2,4.4-9.5,7.7-15.3,9.4c6-10.2,9.2-21.8,9.2-33.7V16h-16v4.2
		c0.1,18.9-10.6,36.2-27.6,44.6c-2.7,1.4-5.4,2.9-7.9,4.7c-7.8-5-12.5-13.6-12.5-22.8V32h-16v14.7c0,13.1,6,25.6,16.3,33.8
		c-9.5,10.9-15.2,24.6-16.1,39l16,1c1.2-17.7,11.6-33.4,27.5-41.4c4-2,7.8-4.4,11.3-7.2h1.1c17.4,0,31.9-5.8,41.9-16.6
		c9.2-10,14.1-23.6,14.1-39.4H480z"/>
</g>
</svg>
