<svg xmlns="http://www.w3.org/2000/svg" xmlns:xlink="http://www.w3.org/1999/xlink" version="1.1" x="0px" y="0px" viewBox="0 0 100 125" enable-background="new 0 0 100 100" xml:space="preserve"><g><g><circle cx="85.125" cy="41.06247" r="1"/><path d="M90.98828,43.85303c-0.52197-0.51416-1.32715-1.42676-1.48047-1.80176c-0.0874-0.21387-0.12549-0.43066-0.18311-0.75928    c-0.09521-0.54346-0.22607-1.2876-0.67285-2.50098c-0.70703-1.91846-3.8584-4-5.04883-4.73193    c-0.44171-1.1972-1.40106-2.68622-1.73468-3.18689c0.17133-0.53204,0.30383-1.07697,0.35822-1.64368    c0.05273-0.54932-0.35059-1.03809-0.90039-1.09082c-0.54443-0.05273-1.0376,0.35059-1.09082,0.90039    c-0.2793,2.91211-2.5249,4.63721-4.35986,5.57178c-1.5647,0.79742-6.94153,2.04059-9.04395,2.48834    c-1.526-0.79303-3.33173-1.05695-5.20605-0.70123c-3.87061,0.7334-6.64941,1.0708-9.59082,1.16455    c-3.29199,0.10303-6.38379-0.8042-9.65771-1.76709c-3.39795-0.99951-6.9126-2.0332-10.6792-1.8374    c-1.18164,0.06104-2.34668,0.27148-3.47314,0.47461c-1.28125,0.23145-2.4917,0.4502-3.69531,0.45898    c-1.82031,0.04053-2.12354-0.37012-3.05664-1.99902c-0.35742-0.625-0.12793-1.14404,0.52295-2.26611    c0.39062-0.67285,0.83301-1.43555,0.94385-2.30322c0.06396-0.50146-0.0874-0.99707-0.43701-1.43359    c-0.58643-0.73242-1.67578-1.2002-2.40332-1.26855c-1.40137-0.13037-2.74219,0.55713-3.66748,1.89014    c-1.96484,2.83154-2.62061,6.48096-1.71191,9.52295c0.72498,2.42645,2.34161,4.21515,4.67242,5.18652    c-0.75598,2.90967-0.16473,6.36621,0.41693,9.74023c0.25244,1.46338,0.51318,2.97705,0.66406,4.42969    c0.42578,4.10449-0.7085,5.96875-1.90967,7.94238c-0.42578,0.69873-0.86572,1.42139-1.21387,2.22949    c-0.63281,1.46826-0.08105,4.27344,0.50244,7.24316c0.27881,1.41699,0.54199,2.75537,0.65137,3.83398    c0.05273,0.51514,0.48682,0.89893,0.99414,0.89893c0.03369,0,0.06787-0.00146,0.10205-0.00488    c0.54932-0.05615,0.94971-0.54688,0.89404-1.09619c-0.11914-1.17139-0.39111-2.5542-0.67871-4.01807    c-0.4292-2.18018-1.01611-5.16602-0.62842-6.06543c0.29248-0.6792,0.67773-1.31152,1.08496-1.98145    c1.25928-2.06836,2.68652-4.41309,2.19092-9.18799c-0.15771-1.52002-0.42432-3.06738-0.68213-4.56348    c-0.74951-4.34717-1.45752-8.45361,0.58252-11.0625c0.34033-0.43506,0.26367-1.06396-0.17139-1.40381    c-0.43506-0.33936-1.06348-0.26367-1.40381,0.17139c-0.2569,0.32849-0.4715,0.6748-0.66455,1.03003    c-2.18732-0.9292-3.10681-2.62244-3.48682-3.89429c-0.53369-1.78693-0.36615-3.91095,0.38989-5.82812    c0.63007,0.091,1.62408,0.30243,2.43762,0.70111c-0.16174,0.54596-0.21198,1.13702-0.04315,1.76404    c-0.4234,0.09576-0.90302,0.12512-1.1452,0.11444c-0.53467-0.01318-1.0166,0.40283-1.04199,0.9541    c-0.0249,0.55127,0.40234,1.01904,0.9541,1.04395c0.03076,0.00146,0.10449,0.00391,0.20996,0.00391    c0.38879,0,1.21307-0.03748,1.97852-0.30701c0.12,0.17505,0.24384,0.33923,0.36859,0.49042    c-0.68604,0.52765-1.26257,0.79358-1.28217,0.80243c-0.50391,0.22217-0.73389,0.81055-0.5127,1.31592    c0.16406,0.37549,0.53125,0.59961,0.9165,0.59961c0.13379,0,0.27002-0.02734,0.40039-0.08447    c0.04614-0.02039,1.07458-0.48199,2.16327-1.43329c0.5459,0.18866,1.19092,0.29315,2.02667,0.29315    c0.0293,0,0.05859-0.00049,0.08789-0.00049c1.375-0.01025,2.72754-0.25439,4.03564-0.49072    c1.11377-0.20117,2.16602-0.39111,3.22119-0.4458c3.43506-0.17578,6.62598,0.76367,10.01123,1.75928    c3.28027,0.96484,6.66113,1.96631,10.28564,1.84717c3.77686-0.12061,6.98975-0.64746,9.89941-1.19873    c2.2749-0.42871,4.40332,0.3208,5.70312,2.01123c0.33057,0.58057,1.08301,2.16455,1.0166,3.29053    c-0.03271,0.55127,0.3877,1.0249,0.93896,1.05713c0.02002,0.00146,0.04004,0.00195,0.06006,0.00195    c0.52539,0,0.96582-0.40967,0.99707-0.94092c0.1167-1.97412-1.16943-4.22119-1.31641-4.4707    c-0.01904-0.03271-0.04004-0.06396-0.0625-0.09375c-0.14142-0.18793-0.30133-0.35333-0.4566-0.52454    c2.35004-0.53723,6.38226-1.52472,7.90582-2.30066c0.24115-0.12286,0.46027-0.26056,0.68683-0.39331    c-0.00287,0.53125,0.07666,1.08612,0.3205,1.62378c0.16748,0.36914,0.53076,0.5874,0.91113,0.5874    c0.13818-0.00049,0.27881-0.02881,0.4126-0.08984c0.50293-0.22803,0.72559-0.8208,0.49756-1.32373    c-0.40088-0.88428,0.1123-2.19238,0.34424-2.62207c0.03027-0.0556,0.03497-0.11591,0.05377-0.17401    c0.30341-0.32654,0.57306-0.66882,0.8172-1.02295c0.40302,0.67853,0.82788,1.47168,0.97766,2.01288    c0.06934,0.24951,0.23242,0.46289,0.45557,0.59473c1.63379,0.96436,4.11426,2.81152,4.51416,3.89746    c0.38525,1.04443,0.49316,1.66016,0.58008,2.15527c0.06787,0.38916,0.13232,0.75732,0.30127,1.17041    c0.26709,0.65283,1.0127,1.51123,1.50684,2.03662c-0.37842,1.16553-1.48779,3.90332-3.36426,3.60205    c-2.52344-0.40088-4.10205-1.29346-4.11523-1.30127c-0.47803-0.27637-1.08984-0.11475-1.36719,0.3623    c-0.27734,0.47754-0.11523,1.08984,0.3623,1.36719c0.02783,0.01617,0.29498,0.16846,0.76221,0.3761    c-0.39807,0.3233-0.81732,0.59637-1.15967,0.79041c-1.59424-2.50342-1.14111-5.64209-1.13379-5.69043    c0.08545-0.54443-0.28613-1.05566-0.83105-1.14258c-0.54346-0.08398-1.05713,0.28516-1.14453,0.83105    c-0.01666,0.10486-0.2323,1.5426,0.05865,3.36334c-1.25787,1.03497-2.26172,1.93103-3.13043,2.80023    c-0.77881,0.7793-1.36572,1.66162-1.93359,2.51465c-0.62158,0.93408-1.2085,1.81592-1.99854,2.50195    c-0.57178,0.49756-1.17236,0.95215-1.80859,1.43311c-0.68018,0.51514-1.38281,1.04688-2.04688,1.63525    c-0.51855,0.33447-2.88721,2.02539-3.56445,5.38623c-0.6958,3.45361,0.94141,12.49414,1.01123,12.87744    c0.05078,0.27783,0.2168,0.52148,0.45703,0.67041c0.23975,0.14893,0.53223,0.18945,0.80371,0.11084    c0.61182-0.17529,1.05273-0.15039,1.31152,0.07275c0.43848,0.37988,0.56592,1.31055,0.56836,2.0708    c-2.31396,0.06982-6.44092-0.30371-6.48779-0.30762c-0.55811-0.0459-1.03662,0.35547-1.08691,0.90527    c-0.0498,0.55029,0.35547,1.03662,0.90527,1.08691c0.17969,0.01611,3.57324,0.32178,6.0459,0.32178    c0.65039,0,1.23682-0.021,1.68457-0.07422c0.45068-0.05371,0.80908-0.40381,0.87256-0.85303    c0.04688-0.33057,0.41064-3.26807-1.18896-4.6582c-0.41602-0.36182-1.09082-0.72314-2.08643-0.6748    c-0.50439-3.021-1.30859-8.875-0.84912-11.15332c0.56299-2.79639,2.62842-4.06592,2.71143-4.11572    c0.05762-0.03369,0.11182-0.07324,0.16211-0.11816c0.62109-0.55615,1.2832-1.05713,1.98389-1.58789    c0.63428-0.47998,1.29053-0.97656,1.91357-1.51807c0.99365-0.86328,1.68408-1.90039,2.35156-2.90332    c0.5376-0.80762,1.04492-1.5708,1.68359-2.20947c0.65717-0.65753,1.39905-1.33459,2.28613-2.08661    c0.31934,0.82703,0.76782,1.65979,1.40869,2.42889c0.19434,0.2334,0.47803,0.35986,0.76855,0.35986    c0.1333,0,0.26807-0.02686,0.396-0.08203c0.08435-0.03625,1.93701-0.85797,3.16998-2.23804    c0.57458,0.1604,1.22345,0.30963,1.94086,0.42358c0.21875,0.03467,0.43066,0.05127,0.63672,0.05127    c2.98438-0.00049,4.62402-3.4873,5.13818-5.67969C91.33984,44.4541,91.23682,44.09766,90.98828,43.85303z M18.07471,28.65039    c0.2373-0.3418,0.87988-1.12793,1.83838-1.03906c0.31787,0.02979,0.88721,0.32617,1.03174,0.52734    c-0.0744,0.4231-0.3385,0.89429-0.62549,1.39044c-0.79333-0.38416-1.64197-0.61621-2.32166-0.75323    C18.02502,28.73511,18.04675,28.69067,18.07471,28.65039z"/><path d="M60.21045,77.23145c-0.02344-0.12744-0.57861-3.146-1.21729-5.24414c-0.27686-0.90967-0.75098-2.90234-1.25244-5.01221    c-0.61279-2.57715-1.30762-5.49854-1.83154-7.23828c-0.54248-1.80322,2.29883-6.25879,4.48975-8.84619    c0.35645-0.42139,0.3042-1.05273-0.1167-1.40967c-0.42236-0.35693-1.05225-0.30518-1.40918,0.1167    c-0.99854,1.17822-5.92676,7.23242-4.87891,10.71533c0.02271,0.07532,0.04749,0.16516,0.07086,0.24518    c-8.52026-1.10547-15.27148-2.89899-17.67389-3.58801c0.98267-3.2995,1.13293-7.18506,0.36914-11.33148    c-0.10059-0.54297-0.62402-0.90332-1.16455-0.80225c-0.54297,0.1001-0.90234,0.62158-0.80225,1.16455    c0.98975,5.37354,0.37207,10.2373-1.74023,13.69531c-0.83545,1.36768-1.82861,2.63232-3.06201,4.11035    c-1.62109,1.94189-3.52686,4.1748-5.63623,6.10254c-1.42188,1.29834-1.01123,5.14258-0.85107,6.28955    c0.05957,0.42822,0.38672,0.76904,0.81201,0.84619c1.07422,0.19482,1.81494,0.60156,2.20166,1.2085    c0.30469,0.47949,0.35059,1.02295,0.33301,1.40283c-1.62598,0.37451-5.03516,0.11328-7.0127-0.1748    c-0.54883-0.08008-1.05469,0.29883-1.13379,0.84521c-0.08008,0.54639,0.29834,1.0542,0.84473,1.13379    c0.396,0.05811,2.71045,0.38135,4.96045,0.38135c1.40381,0,2.78271-0.12598,3.65381-0.521    c0.26855-0.12158,0.46924-0.35547,0.54932-0.63916c0.05371-0.18945,0.49414-1.89746-0.48975-3.47314    c-0.58789-0.94189-1.53369-1.6001-2.81689-1.96289c-0.16797-1.77148-0.04541-3.54053,0.29834-3.85986    c2.20117-2.01221,4.15967-4.30566,5.82227-6.29736c1.1167-1.3374,2.28125-2.79053,3.23389-4.34961    c0.36078-0.59082,0.66968-1.22644,0.95306-1.88251c2.43689,0.70319,9.74408,2.66357,18.9165,3.79065    c0.37762,1.47955,0.78705,3.20135,1.1651,4.79108c0.53125,2.23389,0.98975,4.1626,1.28516,5.13232    c0.60498,1.98682,1.15723,4.99072,1.1626,5.02051c0.08838,0.48291,0.50928,0.82031,0.98291,0.82031    c0.05957,0,0.12012-0.00537,0.18066-0.01611C59.94971,78.29541,60.30957,77.77441,60.21045,77.23145z"/><path d="M27.58789,39.26709l-0.61182,0.23438c-0.51562,0.19727-0.77344,0.77539-0.57568,1.2915    c0.15234,0.39795,0.53174,0.64258,0.93359,0.64258c0.11914,0,0.24023-0.02148,0.35791-0.06689l0.61182-0.23438    c0.51562-0.19727,0.77344-0.77539,0.57568-1.2915C28.68213,39.32666,28.10156,39.06836,27.58789,39.26709z"/><path d="M28.16797,44.94092l-0.6123,0.23486c-0.51611,0.19775-0.77344,0.77588-0.57568,1.2915    c0.15234,0.39795,0.53174,0.64258,0.93359,0.64258c0.11914,0,0.24023-0.02148,0.35791-0.06689l0.6123-0.23486    c0.51611-0.19775,0.77344-0.77588,0.57568-1.2915C29.26172,45.00049,28.68213,44.7417,28.16797,44.94092z"/><path d="M25.5708,53.19873c-0.45752,0.31006-0.57666,0.93164-0.2666,1.38867c0.19336,0.28516,0.5083,0.43896,0.82861,0.43896    c0.19287,0,0.38818-0.05566,0.56006-0.17236l0.45801-0.31055c0.45752-0.31006,0.57666-0.93164,0.2666-1.38867    c-0.30957-0.45654-0.93164-0.57715-1.38867-0.2666L25.5708,53.19873z"/><path d="M24.08398,48.36475l-0.53516,0.23389c-0.50635,0.22119-0.7373,0.81104-0.51611,1.31689    c0.16455,0.37598,0.53174,0.6001,0.91699,0.6001c0.13379,0,0.26953-0.02734,0.3999-0.08398l0.53516-0.23389    c0.50635-0.22119,0.7373-0.81104,0.51611-1.31689C25.1792,48.37451,24.59033,48.146,24.08398,48.36475z"/><path d="M28.88623,58.87012c-0.44678,0.32422-0.54639,0.94971-0.22168,1.39648c0.19531,0.26953,0.50049,0.4126,0.81006,0.4126    c0.20361,0,0.40918-0.06201,0.58643-0.19092l0.53418-0.3877c0.44678-0.32422,0.54639-0.94971,0.22168-1.39648    c-0.32373-0.44678-0.9502-0.54639-1.39648-0.22168L28.88623,58.87012z"/><path d="M31.25,54.07129l-0.68799,0.3125c-0.50293,0.22852-0.7251,0.82129-0.49707,1.32422    c0.16748,0.36865,0.53125,0.58691,0.91113,0.58691c0.13818,0,0.27881-0.0293,0.41309-0.08984l0.68799-0.3125    c0.50293-0.22852,0.7251-0.82129,0.49707-1.32422C32.3457,54.06543,31.75195,53.84277,31.25,54.07129z"/><path d="M29.86768,50.63232c0.16406,0.37549,0.53125,0.59961,0.9165,0.59961c0.13379,0,0.27002-0.02734,0.40039-0.08447    l0.53564-0.23438c0.50586-0.22119,0.73682-0.81104,0.51514-1.31689c-0.22119-0.50635-0.81201-0.73633-1.31689-0.51514    l-0.53564,0.23438C29.87695,49.53662,29.646,50.12646,29.86768,50.63232z"/><path d="M23.81299,43.07227l-0.53516,0.23438c-0.50586,0.22168-0.73633,0.81152-0.51465,1.31738    c0.16455,0.375,0.53125,0.59912,0.9165,0.59912c0.13379,0,0.27002-0.02734,0.40088-0.08447l0.53516-0.23438    c0.50586-0.22168,0.73633-0.81152,0.51465-1.31738C24.90869,43.08203,24.32178,42.85107,23.81299,43.07227z"/><path d="M32.18896,41.41748l-0.68945,0.15869c-0.53857,0.12402-0.87451,0.66064-0.75049,1.19873    c0.10645,0.46289,0.51807,0.77588,0.97363,0.77588c0.07422,0,0.1499-0.0083,0.2251-0.02539l0.68945-0.15869    c0.53857-0.12402,0.87451-0.66064,0.75049-1.19873C33.26465,41.63037,32.72754,41.29834,32.18896,41.41748z"/><path d="M34.01562,39.68701l0.5376,0.07275c0.0459,0.00586,0.09082,0.00879,0.13574,0.00879    c0.49268,0,0.92139-0.36426,0.98926-0.86572c0.07422-0.54736-0.30908-1.05127-0.85645-1.125l-0.5376-0.07324    c-0.55078-0.07275-1.05127,0.30957-1.12549,0.85693C33.08496,39.10889,33.46826,39.61279,34.01562,39.68701z"/><path d="M40.48047,39.34229L39.78906,39.271c-0.54688-0.06641-1.04102,0.34277-1.09717,0.89209    c-0.05664,0.54932,0.34277,1.04053,0.89209,1.09717l0.69141,0.07129c0.03467,0.00391,0.06934,0.00537,0.10352,0.00537    c0.50635,0,0.94092-0.38281,0.99365-0.89746C41.4292,39.89014,41.02979,39.39893,40.48047,39.34229z"/><path d="M40.69189,45.17432l-0.61426-0.07227c-0.54883-0.06787-1.04541,0.32812-1.10986,0.87646s0.32764,1.04541,0.87646,1.10986    l0.61426,0.07227c0.03955,0.00488,0.0791,0.00684,0.11816,0.00684c0.5,0,0.93164-0.37451,0.9917-0.8833    C41.63281,45.73584,41.24072,45.23877,40.69189,45.17432z"/><path d="M46.67969,40.82764L45.7583,40.7583c-0.56934-0.04932-1.03125,0.37158-1.07227,0.92188    c-0.0415,0.55078,0.37109,1.03076,0.92188,1.07227l0.92139,0.06934c0.02588,0.00195,0.05127,0.00293,0.07617,0.00293    c0.51807,0,0.95654-0.3999,0.99609-0.9248C47.64307,41.34912,47.23047,40.86914,46.67969,40.82764z"/><path d="M46.93311,44.73584l-0.69092,0.00537c-0.55225,0.00439-0.99658,0.45557-0.99219,1.00781    c0.00439,0.5498,0.45117,0.99219,1,0.99219c0.00244,0,0.00537,0,0.00781,0l0.69092-0.00537    c0.55225-0.00439,0.99658-0.45557,0.99219-1.00781S47.50049,44.71533,46.93311,44.73584z"/><path d="M43.90332,48.979c-0.00244,0-0.00488,0-0.00732,0l-0.61377,0.00439c-0.55225,0.00391-0.99658,0.45508-0.99268,1.00732    c0.00391,0.5498,0.45068,0.99268,1,0.99268c0.00244,0,0.00488,0,0.00732,0l0.61377-0.00439    c0.55225-0.00391,0.99658-0.45508,0.99268-1.00732C44.89941,49.42188,44.45264,48.979,43.90332,48.979z"/><path d="M40.51465,53.4165c-0.55225,0.00391-0.99658,0.45508-0.99268,1.00732c0.00391,0.5498,0.45068,0.99268,1,0.99268    c0.00244,0,0.00488,0,0.00732,0l0.61377-0.00439c0.55225-0.00391,0.99658-0.45508,0.99268-1.00732    s-0.4707-0.98486-1.00732-0.99268L40.51465,53.4165z"/><path d="M47.10986,52.90674l-0.61377,0.00439c-0.55225,0.00391-0.99658,0.45508-0.99268,1.00732    c0.00391,0.5498,0.45068,0.99268,1,0.99268c0.00244,0,0.00488,0,0.00732,0l0.61377-0.00439    c0.55225-0.00391,0.99658-0.45508,0.99268-1.00732c-0.00391-0.5498-0.45068-0.99268-1-0.99268    C47.11475,52.90674,47.1123,52.90674,47.10986,52.90674z"/><path d="M49.65674,50.78223c0.00244,0,0.00488,0,0.00732,0l0.61426-0.00439c0.55225-0.00391,0.99658-0.45508,0.99268-1.00732    c-0.00391-0.5498-0.45068-0.99268-1-0.99268c-0.00244,0-0.00488,0-0.00732,0l-0.61426,0.00439    c-0.55225,0.00391-0.99658,0.45508-0.99268,1.00732C48.66064,50.33936,49.10742,50.78223,49.65674,50.78223z"/><path d="M49.91748,44.79492c0.0498,0,0.09961-0.00342,0.1499-0.01123l0.53662-0.08057    c0.54639-0.08203,0.92236-0.59131,0.84033-1.13721c-0.08154-0.54688-0.59668-0.92334-1.13721-0.84033l-0.53662,0.08057    c-0.54639,0.08203-0.92236,0.59131-0.84033,1.13721C49.00439,44.43945,49.43115,44.79492,49.91748,44.79492z"/><path d="M52.99072,45.79443c-0.53467,0.13818-0.85645,0.68359-0.71826,1.21826c0.11621,0.45068,0.52246,0.75,0.96777,0.75    c0.08252,0,0.1665-0.01025,0.25049-0.03174l0.61279-0.1582c0.53467-0.13818,0.85645-0.68359,0.71826-1.21826    c-0.1377-0.53467-0.68018-0.85693-1.21826-0.71826L52.99072,45.79443z"/><path d="M55.10303,40.69775l-0.45996,0.08008c-0.54443,0.09473-0.90869,0.61279-0.81396,1.15674    c0.08496,0.48633,0.50732,0.82861,0.98438,0.82861c0.05664,0,0.11426-0.00488,0.17236-0.01465l0.45996-0.08008    c0.54443-0.09473,0.90869-0.61279,0.81396-1.15674S55.6499,40.60498,55.10303,40.69775z"/><path d="M58.09473,43.73682l-0.68994,0.08203c-0.54834,0.06543-0.93994,0.56299-0.875,1.11133    c0.06055,0.5083,0.49219,0.88184,0.9917,0.88184c0.03955,0,0.07959-0.00244,0.11963-0.00684l0.68994-0.08203    c0.54834-0.06543,0.93994-0.56299,0.875-1.11133C59.14062,44.06299,58.64258,43.6748,58.09473,43.73682z"/><path d="M81.25049,40.08984c-0.15137,0.10693-1.4873,1.07812-1.89404,2.36816c-0.16602,0.52686,0.12646,1.08838,0.65283,1.25439    c0.1001,0.03174,0.20166,0.04688,0.30127,0.04688c0.4248-0.00049,0.81885-0.27295,0.95312-0.69971    c0.15479-0.49023,0.78223-1.08008,1.1416-1.33691c0.44922-0.31885,0.55615-0.94141,0.23877-1.3916    C82.3252,39.87988,81.70117,39.77197,81.25049,40.08984z"/><path d="M82.4917,42.68115c-0.979,1.14111-1.49805,2.02002-1.54297,2.6123c-0.04199,0.55078,0.36475,1.06934,0.91504,1.11133    c0.02832,0.00195,0.05615,0.00293,0.08398,0.00293c0.51416,0,0.94336-0.36328,0.98291-0.88623    c0.06982-0.22705,0.58398-0.96045,1.0791-1.53809c0.35938-0.41943,0.31055-1.05078-0.1084-1.41016    C83.48096,42.21387,82.85059,42.26221,82.4917,42.68115z"/><path d="M54.51172,49.84863l-0.45654,0.52148c-0.36377,0.41553-0.32178,1.04736,0.09375,1.41113    c0.18994,0.16602,0.42432,0.24756,0.6582,0.24756c0.27832,0,0.55518-0.11572,0.75293-0.34131l0.45654-0.52148    c0.36377-0.41553,0.32178-1.04736-0.09375-1.41113C55.50684,49.39062,54.875,49.43311,54.51172,49.84863z"/><path d="M51.77783,53.66748c-0.36377,0.41553-0.32178,1.04736,0.09375,1.41113c0.18994,0.16602,0.42432,0.24756,0.6582,0.24756    c0.27832,0,0.55518-0.11572,0.75293-0.34131l0.45654-0.52148c0.36377-0.41553,0.32178-1.04736-0.09375-1.41113    c-0.4165-0.36426-1.04785-0.32178-1.41113,0.09375L51.77783,53.66748z"/><path d="M60.66016,39.98438l-0.68945,0.12012c-0.54395,0.09521-0.9082,0.61279-0.81348,1.15723    c0.08496,0.48584,0.50732,0.82812,0.98438,0.82812c0.05664,0,0.11475-0.00488,0.17285-0.01465l0.68945-0.12012    c0.54395-0.09521,0.9082-0.61279,0.81348-1.15723C61.72266,40.25439,61.20801,39.89209,60.66016,39.98438z"/><path d="M62.00146,45.92969l-0.62988,0.40723c-0.46387,0.2998-0.59668,0.91895-0.29688,1.38281    c0.19141,0.2959,0.5127,0.45703,0.84082,0.45703c0.18604,0,0.37402-0.05176,0.54199-0.16016l0.62988-0.40723    c0.46387-0.2998,0.59668-0.91895,0.29688-1.38281C63.08496,45.7627,62.46582,45.63037,62.00146,45.92969z"/><path d="M64.77344,41.9082l-0.74707,0.12061c-0.54541,0.08789-0.91602,0.60156-0.82812,1.14648    c0.07959,0.4917,0.50391,0.84082,0.98633,0.84082c0.05273,0,0.10645-0.00391,0.16016-0.0127l0.74707-0.12061    c0.54541-0.08789,0.91602-0.60156,0.82812-1.14648C65.83154,42.19043,65.31738,41.81641,64.77344,41.9082z"/><path d="M73.88574,40.66357c0.08936,0,0.18066-0.01221,0.27148-0.03809l0.63184-0.17773    c0.53125-0.14941,0.84131-0.70166,0.69141-1.2334c-0.1499-0.53076-0.69775-0.84375-1.2334-0.69141l-0.63184,0.17773    c-0.53125,0.14941-0.84131,0.70166-0.69141,1.2334C73.04785,40.375,73.44873,40.66357,73.88574,40.66357z"/><path d="M71.9502,43.44385c0.1582,0.3877,0.53174,0.62256,0.92627,0.62256c0.12598,0,0.25391-0.02441,0.37744-0.07471    l0.57373-0.23438c0.51172-0.20898,0.75684-0.79248,0.54785-1.30371c-0.2085-0.51172-0.79297-0.75586-1.30371-0.54785    l-0.57373,0.23438C71.98633,42.34912,71.74121,42.93262,71.9502,43.44385z"/><path d="M66.37988,47.42334l-0.57373,0.23438c-0.51172,0.20898-0.75684,0.79248-0.54785,1.30371    c0.1582,0.3877,0.53174,0.62256,0.92627,0.62256c0.12598,0,0.25391-0.02441,0.37744-0.07471l0.57373-0.23438    c0.51172-0.20898,0.75684-0.79248,0.54785-1.30371C67.4751,47.45947,66.89062,47.21533,66.37988,47.42334z"/><path d="M63.76855,53.2583c0.43945-0.33447,0.5249-0.96191,0.19043-1.40137s-0.9624-0.5249-1.40137-0.19043l-0.45801,0.34863    c-0.43945,0.33447-0.5249,0.96191-0.19043,1.40137c0.19678,0.25879,0.49512,0.39453,0.79688,0.39453    c0.21094,0,0.42383-0.06641,0.60449-0.2041L63.76855,53.2583z"/><path d="M60.44824,58.1748l0.45801-0.34863c0.43945-0.33447,0.5249-0.96191,0.19043-1.40137s-0.9624-0.5249-1.40137-0.19043    l-0.45801,0.34863c-0.43945,0.33447-0.5249,0.96191-0.19043,1.40137c0.19678,0.25879,0.49512,0.39453,0.79688,0.39453    C60.05469,58.37891,60.26758,58.3125,60.44824,58.1748z"/><path d="M66.36084,52.38623c-0.43945,0.33496-0.52441,0.9624-0.18945,1.40137c0.19678,0.2583,0.49463,0.39404,0.79639,0.39404    c0.21094,0,0.42432-0.06689,0.60498-0.20459l0.45752-0.34863c0.43945-0.33496,0.52393-0.9624,0.18945-1.40137    c-0.33447-0.43945-0.9624-0.52393-1.40137-0.18945L66.36084,52.38623z"/><path d="M71.83057,50.26123c0.07715,0.01807,0.15381,0.02637,0.22998,0.02637c0.45361,0,0.86426-0.31055,0.97266-0.771    c0.4126-1.75488,1.96191-3.07275,1.99658-3.10205c0.42432-0.35156,0.48438-0.98096,0.1333-1.40625    c-0.35059-0.42578-0.98145-0.48633-1.40771-0.13525c-0.08545,0.07031-2.09668,1.75244-2.66943,4.18555    C70.95947,49.59619,71.29297,50.13428,71.83057,50.26123z"/><path d="M63.98682,58.57812c0.31445,0,0.62402-0.14795,0.81885-0.4248l0.37988-0.54004    c0.31787-0.45166,0.20898-1.0752-0.24268-1.39307c-0.45166-0.31738-1.07568-0.20996-1.39307,0.24268l-0.37988,0.54004    c-0.31787,0.45166-0.20898,1.0752,0.24268,1.39307C63.5874,58.51904,63.78809,58.57812,63.98682,58.57812z"/><path d="M60.36426,61.60059l-0.61328,0.08154c-0.54736,0.07275-0.93213,0.57568-0.85938,1.12305    c0.06689,0.50293,0.49609,0.86816,0.98975,0.86816c0.04395,0,0.08838-0.00293,0.1333-0.00879l0.61328-0.08154    c0.54736-0.07275,0.93213-0.57568,0.85938-1.12305S60.91943,61.52881,60.36426,61.60059z"/><path d="M60.45557,66.42627c-0.00244,0-0.00488,0-0.00732,0l-0.46045,0.00342c-0.55225,0.00391-0.99658,0.45508-0.99268,1.00732    c0.00391,0.5498,0.45117,0.99268,1,0.99268c0.00244,0,0.00488,0,0.00732,0l0.46045-0.00342    c0.55225-0.00391,0.99658-0.45508,0.99268-1.00732C61.45166,66.86914,61.00439,66.42627,60.45557,66.42627z"/><path d="M25.9585,60.10254c0.42871-0.34863,0.49365-0.97803,0.14502-1.40674c-0.34912-0.42871-0.97754-0.49414-1.40674-0.14502    l-0.38135,0.31006c-0.42871,0.34814-0.49365,0.97803-0.14502,1.40674c0.19775,0.24316,0.48584,0.36914,0.77637,0.36914    c0.22168,0,0.44482-0.07324,0.63037-0.22412L25.9585,60.10254z"/><path d="M25.90039,65.08008c0.2583,0,0.5166-0.09961,0.7124-0.29834l0.38086-0.38672    c0.3877-0.39355,0.38281-1.02637-0.01074-1.41406s-1.02637-0.38281-1.41406,0.01074l-0.38086,0.38672    c-0.3877,0.39355-0.38281,1.02637,0.01074,1.41406C25.39355,64.98438,25.64697,65.08008,25.90039,65.08008z"/><path d="M21.98682,65.78662l-0.3042,0.38574c-0.34229,0.43359-0.26758,1.0625,0.16602,1.4043    c0.18359,0.14453,0.40186,0.21484,0.61865,0.21484c0.29541,0,0.58838-0.13037,0.78564-0.38086l0.3042-0.38574    c0.34229-0.43359,0.26758-1.0625-0.16602-1.4043C22.95752,65.27979,22.32861,65.35254,21.98682,65.78662z"/></g></g><text x="0" y="115" fill="#000000" font-size="5px" font-weight="bold" font-family="'Helvetica Neue', Helvetica, Arial-Unicode, Arial, Sans-serif">Created by Yu luck</text><text x="0" y="120" fill="#000000" font-size="5px" font-weight="bold" font-family="'Helvetica Neue', Helvetica, Arial-Unicode, Arial, Sans-serif">from the Noun Project</text></svg>