<?xml version="1.0" encoding="utf-8"?>
<!-- Generator: Adobe Illustrator 24.1.1, SVG Export Plug-In . SVG Version: 6.00 Build 0)  -->
<svg version="1.1" id="Capa_1" xmlns="http://www.w3.org/2000/svg" xmlns:xlink="http://www.w3.org/1999/xlink" x="0px" y="0px"
	 viewBox="0 0 563.5 563.5" style="enable-background:new 0 0 563.5 563.5;" xml:space="preserve">
<style type="text/css">
	.st0{fill:#FFFFFF;}
</style>
<g>
	<path class="st0" d="M544.7,265.4c-38.6-34.4-34.4-38.7-53.7-52.6c-22.5-15-44-20.4-65.5-20.4c-39.8,0-82.7,17.2-133.3,17.2
		c-11,0-23.6-1.6-35.8-3.4c-3.3-0.5-7.9-3-9.9-5.7c-19.6-26.1-37.2-76-57.6-101.3c-2.1-2.6-6.2-6.3-8.4-8.9
		c-3.1-3.8-4.2-7.3-4.2-9.6c0-5.4,7.5-10.7,16.1-14c9.6-3.3,24.8-6.4,39.8-6.4c44.8,0,105.8,22.3,137.8,80.5c1.6,3,5.3,4.1,8.2,2.5
		l1.1-0.6c3-1.6,4.5-5.5,3.2-8.6C360.8,80.1,283.4,0,188,0c-29,0-61.2,7.5-92.4,24.7L6.7,64.2c-3.1,1.4-5.1,5.2-4.5,8.5l4.3,24.5
		c0.6,3.3,2.6,8.4,5,10.7c8.2,7.9,25.3,16.8,47.6,16.8c4.8,0,11.5-1.2,17.6-2.3c3.3-0.6,8.6,0.1,11.1,2.4
		c10.2,9.1,14.2,29,14.2,51.4c0,25.8-4.3,59.1-4.3,88.1c0,36.2,5.7,69.7,32,83.4c3,1.6,5,5.2,4.2,8.5L86.3,557.3
		c-0.8,3.3,1.3,6.2,4.7,6.2h11.4c3.4,0,7.2-2.8,8.5-5.9l45.8-110.3c1.3-3.1,1.9-3,1.4,0.3l-17.4,107.2c-0.5,3.3,1.8,6.2,5.1,6.5
		l15.7,1.2c3.4,0.3,7.2-2,8.5-5.2l75.7-175.7c1.3-3.1,5-4.7,8.2-3.7c10.7,3.3,23.1,5.6,34,5.6c34.7,0,69.4-14,82.6-20
		c3.1-1.4,6.1,0,7,3.3c7.5,28.2,17.8,42.5,17.8,60.7l-6.1,128.2c-0.2,3.4,2.4,6.3,5.8,6.5l5,0.3c3.4,0.2,6.8-2.3,7.7-5.5l39.7-146.1
		c0.9-3.3,3.8-4.3,6.5-2.2l11.7,8.8c2.7,2,4.8,6.4,4.6,9.8l-6.9,130.4c-0.2,3.4,2.4,5.9,5.8,5.9h14.6c3.4,0,6.9-2.4,7.8-5.6
		c10.9-37.4,19.3-60.9,32.7-87.5c9.7-24.7,19.3-49.4,19.3-65.5c0-1.5-0.5-3.2-1-4.8c-0.8-2.6-2.4-7.3-4.8-9.7
		c-4.5-4.5-8.7-3.5-12.8-6.6c-2.7-2-6.1-6.4-8-9.2c-3.8-5.8-5.7-13.8-5.7-21.2c0-4.5,0.5-10.5,1.6-15.6c0.7-3.3,2.8-8.4,3.9-11.6
		c3.4-9.9,8.7-27.6,18.1-27.6c3.5,0,8.4,2.1,13.5,8c2.2,2.5,4.7,2.3,6-0.8c1.9-4.7,3.5-8.3,5.3-11.6c1.6-3,2.4-7.9,0.8-10.8
		C556.3,275.9,548.1,267.9,544.7,265.4z"/>
</g>
</svg>
