<?xml version="1.0" encoding="utf-8"?>
<!-- Generator: Adobe Illustrator 24.1.1, SVG Export Plug-In . SVG Version: 6.00 Build 0)  -->
<svg version="1.1" id="Capa_1" xmlns="http://www.w3.org/2000/svg" xmlns:xlink="http://www.w3.org/1999/xlink" x="0px" y="0px"
	 viewBox="0 0 581.2 581.2" style="enable-background:new 0 0 581.2 581.2;" xml:space="preserve">
<style type="text/css">
	.st0{fill:#FFFFFF;}
</style>
<g>
	<g>
		<path class="st0" d="M25.3,446c-2.5,4-5.3,7.8-8,11.7c-3.1,4.5-2.9,9.2-0.6,13.9c4.3,8.7,12,14.1,19.9,18.9
			c3.9,2.4,8.2,4.2,12.8,5.8c1,0.4,1.4-0.1,1-1.1c-3.4-8.5-3.1-15.2-0.7-20.8c0.4-1,1.7-1.9,2.7-2.1c1.6-0.4,3.1-1,4.6-1.7
			c1-0.4,2.5-1.1,3.5-1.5c8.7-3.1,17.3-6.3,26-9c7.8-2.4,15.4-1.2,22.9,2.4c16,7.7,32,15.7,48.4,22.5c24.7,10.1,50.6,12.4,77.1,10.5
			c6.2-0.5,12.3-1.1,18.4-1.9c1-0.1,1.9,0.6,2,1.6c0.2,2.3,0.6,4.6,1,6.9c0.2,1-0.4,1.9-1.5,2.1c-7.2,1.5-11.4,7.2-14.5,14.6
			c-0.7,1.6-1.6,3.1-2.6,4.5c-3,3.8-3.8,7.2,0.7,10.7c1,0.8,1.2,3.1,1,4.6c-0.4,3.9-1.2,7.8-1.9,12c-0.2,1,0.5,2.1,1.5,2.5
			c3.2,1.2,6.5,2.9,9,2.2c2.3-0.7,3.7-4,5.6-7c0.5-0.9,1.7-1.1,2.6-0.5c2.1,1.5,4.2,2.9,6.1,4.2c0.9,0.6,2.2,0.5,2.9-0.2
			c5.3-5,10.5-9.9,16.4-15.5c0.8-0.7,0.5-1.2-0.5-1c-5.8,0.9-10.8,1.6-16.2,2.4c-1,0.2-1.8-0.6-1.8-1.6c0.3-5,0.4-9.7,0.9-14.4
			c0.1-0.8,1.9-2,2.9-2c2.2,0.1,4.5,0.5,6.9,1c1,0.2,1.7,1.2,1.6,2.2c-0.5,3-0.9,5.8-1.4,8.7c-0.2,1,0.5,1.7,1.5,1.3
			c6.7-2.5,9.8-8.2,13.3-13.8c0.6-0.9,0.3-2-0.7-2.5c-3.5-1.9-7-3.7-10.9-5.8c-0.9-0.5-1.2-1.6-0.6-2.4c1.6-2.3,3.1-4.5,4.5-6.5
			c0.4-0.5,0.8-1,1.1-1.5c0.3-0.4,0.5-0.8,0.8-1.1c0.4-0.6,0.7-1.1,0.6-1.1c-0.1,0,0.2-0.7,0.6-1.6c0.7-1.4,1.5-2.9,2.2-4.3
			c0.5-0.9,1.4-1,2.2-0.4c1.5,1.2,3.2,2.2,5,2.8c1,0.3,2.6,0.8,3.5,1.3c5.6,2.6,11.5,5.3,17.3,8.3c6.9,3.6,8.1,10.5,8.5,17.4
			c0.2,4.1-3.2,6-6.5,7.8c-4.7,2.5-9.6,5-13.5,8.4c-5.1,4.4-4.9,7.9-1.2,13.6c0.6,1,0.6,2.9,0.1,4.1c-4.9,11.7-4.9,11.7,4.2,20.3
			c1.6,1.5,3.2,3,5.2,4.9c0.8,0.7,1.2,0.5,1-0.5c-0.9-4-1.6-7.3-2.3-10.6c-1.3-5.8-0.9-7.9,3.2-11.9c0.8-0.7,2.1-0.9,3.1-0.5
			c1.9,0.9,3.8,1.9,6,2.9c0.9,0.5,1.5,0.2,1.4-0.6c-0.1-0.6-0.2-1-0.4-1.4c-2.9-10-2.5-11.6,7.4-15.2c1-0.4,1.9,0.2,2,1.2
			c0.7,6.6,1.4,13.1,2.1,19.6c0.1,1.3,0.2,2.5,0.3,3.8c0.6,6.8,2.9,9.4,9.5,10.5c1,0.2,2.2-0.2,3-0.7c3.8-2.7,7.5-5.5,11.9-8.8
			c0.8-0.6,0.7-1.2-0.4-1.3c-4-0.3-7.3-0.5-10.6-1.2c-1.4-0.3-3.5-2-3.5-3.2c-0.3-8.5-0.2-17-0.2-25.9c0-1,0.8-1.6,1.8-1.3
			c1.5,0.5,3.1,1,4.5,1.9c1.1,0.8,2.2,2.6,2.2,3.9c0.1,2.9-0.2,5.9-0.4,9.6c-0.1,1,0.5,1.3,1.3,0.6c5.3-4.6,9.8-8.6,12.1-14.7
			c1-2.7,0.8-4.2-2.1-5.5c-6-2.7-12.2-5.3-17.6-9c-2.8-1.9-4.5-5.5-7.1-9.4c-0.6-0.9-0.2-1.6,0.8-1.7c6.9-0.4,12.7-0.7,18.8-1
			c1-0.1,1.5-0.9,1-1.8c-2.5-4.6-5.6-8.9-4.5-14.9c0.2-1,1-1.2,1.8-0.5c3.6,3.2,7.4,3.7,11.5,2.5c1-0.3,1.8-0.8,1.8-1
			c0-0.2,0-0.3,0-0.4c-7.6-7.3-9.1-16.7-4.1-28.5c0,0,0,0,0,0c0,0,0.8-0.4,1.8-0.7c5.6-1.9,11.1-1.9,17.5,0c6,2.3,9.2,6.8,11.6,15.3
			c3.1,11.2,3.5,22.4-0.9,33.4c-2.2,5.6-5.4,10.4-10.6,13.7c-0.9,0.6-0.8,1.3,0.2,1.6c9.3,3.2,18.8,3.1,25.8-12.3
			c0.4-1,0.9-0.9,1.2,0.1c0.3,1.1,0.5,2,0.5,2.9c0.3,12.1,5.1,22.2,13.9,30c13.5,12.1,28.9,20.2,47.8,18.9
			c16.7-1.1,36.4-16.4,39.6-31.3c2.5-11.7,0.7-22.9-5.3-33.3c-0.9-1.5-2-2.8-3.1-4.2c-0.2-0.3-0.5-0.5-0.9-0.8
			c-0.5-0.4-0.7,0.1-0.4,1.1c0.9,3,1.9,5.6,2.2,8.3c1.6,11.8-6.1,22.6-18.9,27.1c-10.5,3.8-20,0.5-27.8-6c-6-5-10.3-12.1-15.2-18.4
			c-0.8-1.1-1.1-2.6-1.3-4.3c-0.1-1,0.4-1.2,1-0.4c7.7,9.3,17,8.2,27.3,5.1c1-0.3,1.2-1.2,0.5-2c-3.8-4.2-7.2-7.9-10.6-11.6
			c-5.7-6.4-9.8-13.8-11.1-22.1c-0.7-4.2-1.9-7.8-3.6-10.9c-0.5-0.9-1.3-2.4-1.7-3.4c-2.8-6.6-6.8-12.6-11.6-17.8
			c-0.7-0.8-1.8-2.1-2.3-3c-1.9-2.8-3.9-5.2-6-7.4c-0.7-0.7-1.6-2.2-2.2-3c-0.5-0.7-1.1-1.4-2-2c-5.1-3.5-10.4-6.8-15.9-9.8
			c-0.9-0.5-2.3-1.4-3.1-2.1c-6.6-5.1-13.8-9.4-21.4-12.6c-1-0.4-0.9-0.8,0.1-0.9c17.7-2.1,35-5.9,52.4-11.6c1-0.3,1-0.5-0.1-0.5
			c-13,1-24.8,2.1-36.7,2.5c-4.8,0.1-9.7,0-14.5-0.2c-1,0-1.6-0.9-0.8-1.6c1.6-1.3,4.3-2,6.1-2.6c2-0.7,3.9-1.5,5.9-2.2
			c1-0.4,2.6-0.7,3.7-0.7c23.7-0.5,46.3-8,68.4-17.6c1-0.4,0.9-0.7-0.1-0.5c-9.2,1.1-18.4,2.7-27.6,3c-6,0.2-12,0.3-18,0.3
			c-1,0-2.1-0.7-2.4-1.4c-0.4-0.8-0.7-1.4-0.5-1.6c0.1-0.1,0.2-0.2,0.3-0.2c1.8-1.2,3.6-2.5,5.5-3.5c2.3-1.3,4.7-2.4,7.2-3.3
			c1-0.4,2.6-0.8,3.6-1c2.5-0.5,5.1-1.1,7.6-1.8c16.9-4.8,32.2-13.2,47.6-21.4c0.9-0.5,0.9-0.7-0.2-0.4c-16.7,4.4-33.5,7.6-50.5,9.7
			c-1,0.1-2.4-0.1-3-0.3c-0.7-0.2-0.7-0.9,0-1.7c1.9-2.1,3.8-4.2,5.6-6.4c0.7-0.8,2-1.6,3.1-1.9c28-6.6,53.7-19.8,76.6-41.2
			c0.8-0.7,0.6-1-0.4-0.6c-2.8,1.2-5.5,2.2-8,3.5c-17.8,8.7-36.2,15.4-55.1,20.6c-1,0.3-1.3-0.2-0.8-1.1c1.9-2.8,3.7-5.6,5.5-8.5
			c0.5-0.9,1.8-1.9,2.8-2.2c2.5-0.8,5-1.7,7.6-2.5c25.1-8,43.4-26.1,62-43.6c0.8-0.7,1.2-1.5,1-1.8c-0.2-0.3-1.1-0.1-2,0.4
			c-2.7,1.5-5.5,3-8.1,4.6c-8.9,5.2-18,10.7-27.8,14c-1.7,0.6-18.3,5.4-16.7,0.4c1.6-5,7.1-8.7,10.8-12c6.9-6.2,13.8-12.5,20.8-18.7
			c4.6-3.5,9-7.3,13.2-11.5c15.5-15.7,27.2-34.2,39.7-52.1c0.6-0.9,0.9-1.7,0.6-2c-0.3-0.2-1.1,0.2-1.9,0.9
			c-5.5,5-10.9,9.9-16.4,14.9c-17.4,15.8-36,29.9-55.7,42.3c-0.9,0.6-1.4,0.2-1.2-0.8c0.3-1.4,0.6-2.9,0.9-4.3
			c0.1-0.3,0.1-0.6,0.2-0.9c0.1-0.5,0.7-1.5,1.3-2.4c1.9-2.4,3.7-4.8,5.6-7.2c0.6-0.8,1.8-2,2.7-2.7c7.4-5.9,13.7-13.2,18.4-21.5
			c0.5-0.9,1.5-2.3,2.1-3.1c22.4-27.2,34.7-58.9,38.9-95.1c0.1-1-0.2-1.1-0.7-0.2c-7.1,12.9-13.5,24.9-20.4,36.6
			c-13,22.2-28.1,42.5-46.2,60.4c-0.7,0.7-2.1,1.7-3,2.2c-1.5,0.8-3.1,1.4-4.7,1.9c-1,0.3-2.1,0.2-2.5-0.2s-0.2-1.4,0.4-2.2
			c7.4-10,13.7-20.7,18.7-32.1c0.4-1,1.2-2.5,1.8-3.3c11.2-18.3,19.4-38.2,26.6-58.6c0.3-0.9,0.9-2,0.7-2.7
			c-3.9-10.6-0.9-21.5-1.7-32.3c-1.5-20.2-10.6-37-21.5-53.3c-1.5-2.2-3.1-4.4-5-6.4c-0.7-0.8-1.1-0.5-0.8,0.5
			c1.9,6.1,3.9,12.3,5.5,18.5c6.5,25.4,9.8,51,3.6,77.1c-3.3,13.9-11,25.3-18.9,36.7c-13.4,19.2-28.5,36.6-49.5,47.8
			c-11.2,6-22.3,12.5-33.7,18.2c-38,19.1-74.4,40.9-108.5,66.3c-12.5,8.5-24.4,17.8-35.5,28c-0.8,0.7-1,0.5-0.6-0.4
			c3.5-7.7,6.3-15.4,7.7-23.8c0.2-1,0-1.8-0.4-1.6c-0.4,0.1-0.6,0.2-0.7,0.3c-2.7,6.4-7.2,11.4-11.6,16.6c-0.7,0.8-1.5,0.7-1.8-0.3
			c-0.9-2.4-1.8-4.8-2.7-7.3c-0.4-1-0.3-2.5,0.2-3.5c7-13.8,12.6-28,15.8-43.3c0.2-1,0.2-2-0.1-2.1c-0.3-0.1-0.9,0.5-1.3,1.5
			c-0.6,1.3-1.1,2.5-1.9,3.7c-5.8,9.1-11.6,18.2-17.5,27.3c-0.6,0.9-1.4,0.8-1.8-0.2c-1.2-2.9-2.5-5.7-3.7-8.5
			c-0.4-1-0.5-2.5-0.2-3.5c6.4-18.1,11.2-36.7,13.4-56c0.1-1-0.1-2-0.4-2.1c-0.3-0.1-0.9,0.6-1.2,1.6c-0.6,2-1.2,4-2.1,5.9
			c-5.6,11.9-11.1,23.7-16.8,35.5c-0.4,0.9-1.2,1-1.7,0c-2.6-5-5.3-10-8.1-14.9c-0.5-0.9-0.8-2.5-0.6-3.5
			c2.5-12.6,4.3-25.4,5.4-38.3c0.4-4.2,0.1-8.4,0.1-13.1c0-1-0.3-1.1-0.6-0.1c-4.5,12.8-8.8,25.1-13.1,37.4c-0.3,1-1.1,1.1-1.6,0.2
			c-2.1-3.2-4.2-6.5-6.3-9.6c-0.6-0.9-0.9-2.4-0.8-3.4c3.3-21.2,4.5-42.5,2.5-64.1c-0.1-1-0.6-1.9-1-2c-0.5-0.1-1,0.7-1.1,1.8
			c-0.3,2.5-0.6,5-1.2,7.4c-3.7,13.3-7.5,26.6-11.3,39.9c-0.3,1-1,1.1-1.7,0.3c-2.4-3.1-4.9-6.2-7.4-9.3c-0.7-0.8-1.2-2.3-1.1-3.4
			c0.8-26.6-2.6-52.8-11.1-78.7c-0.3-1-0.3-1-0.1,0c3.8,14.3-0.6,40-3,54.8c-0.2,1-1.2,2-2.2,2c-5.1-0.2-9.4-3.6-11.8-8.5
			c-2.6-5.3-2.9-11.4-3.5-17.2c-2-21.8-7.9-43.2-17.3-62.9c-0.4-0.9-0.7-0.9-0.6,0.2c2,20.8,3.9,41.9,0.1,62.4
			c-0.2,1-0.7,1.1-1.2,0.2c-16-33.1-32.1-66.3-48.1-99.4c-0.5-0.9-0.7-0.9-0.5,0.2c4.6,23.5,9.2,46.9,13.8,70.4
			c0.2,1-0.3,1.4-1.1,0.7C85.6,81.5,74.4,62.9,70.8,43c-0.2-1-0.3-1-0.3,0c0.1,6.9-0.2,22.3,3,28.1C74,72,74,72,73.2,71.3
			c-1-0.9-1.9-1.7-2.9-2.6c-0.8-0.7-1.8-2-2.3-2.9c-3-5.4-6-10.8-9.2-16.1c-5.8-9.4-11.5-19-18.6-27.4C33.6,14.5,25.6,7.9,18.1,0.9
			c-0.8-0.7-1.6-1-2-0.7s-0.2,1.3,0.4,2.2c4,6.7,8,13.3,11.9,20.1c18.6,32.9,32.8,67.4,40.4,104.5c5.8,28.2,4.7,56.4,1,84.7
			c-2.9,22.4-6.7,44.6-14.8,65.8c-2,5.1-4.6,10-7.2,15.3c-0.5,0.9-0.2,2.2,0.7,2.9c3.9,3,7.9,6.3,12.1,9.2c0.8,0.6,2.8-0.1,4-0.7
			c7.1-3.8,14-7.8,21.1-11.6c0.5-0.3,1.1-0.5,1.7-0.6c1-0.2,1.8-0.3,2-0.1c0.1,0.2-0.4,0.9-1.2,1.6c-0.6,0.5-1.2,1.1-1.8,1.6
			c-0.8,0.7-0.6,1,0.4,0.7c8.4-2.8,17-4.6,25.9-4.3c20.1,0.8,38.4,24.3,33.2,42.9c-2.5,8.8-8.6,15-15.7,20.1
			C115.5,365,98.5,370.5,81.6,376c-9.1,3-18.2,6.2-27.4,9c-16.1,5.1-22.4,17.9-25.7,32.8c-0.6,2.9-1,5.8-1.1,8.9
			c0,1-0.3,2.7-0.5,3.7c-0.4,2.1-0.4,4.3,0.1,6.5c0.2,0.9,0.4,1.7,0.6,2.6c0.2,1,0,2.6-0.5,3.5C26.5,444.1,25.9,445,25.3,446z"/>
	</g>
</g>
</svg>
